<?xml version="1.0" standalone="no"?><!DOCTYPE svg PUBLIC "-//W3C//DTD SVG 1.1//EN" "http://www.w3.org/Graphics/SVG/1.1/DTD/svg11.dtd"><svg t="1681039071041" class="icon" viewBox="0 0 1024 1024" version="1.1" xmlns="http://www.w3.org/2000/svg" p-id="1273" xmlns:xlink="http://www.w3.org/1999/xlink" width="200" height="200"><path d="M1012.216 466.752l-91.96-30.936 50.56-82.808c-53.152-42.144-146.784-51.36-239.864-17.48a353.328 353.328 0 0 0-36.904 15.888c0.608-8.424 0.936-16.976 0.936-25.64 0-99.048-40.688-183.888-98.464-219.416L536 182.192l-60.52-75.832c-57.776 35.536-98.464 120.368-98.464 219.416 0 8.664 0.328 17.216 0.936 25.64a353.328 353.328 0 0 0-36.904-15.888c-93.08-33.88-186.712-24.664-239.864 17.48l50.56 82.808-91.96 30.936c13.632 66.448 79.432 133.696 172.512 167.576 11.088 4.032 22.176 7.44 33.208 10.264-2.8 2.936-5.56 5.936-8.288 9-65.848 73.992-91.856 164.416-72.312 229.368l95.624-16.416-5.2 96.88c66.784 11.864 153.576-24.456 219.424-98.456A346.672 346.672 0 0 0 536 808.04a346.336 346.336 0 0 0 41.248 56.928c65.848 73.992 152.64 110.32 219.424 98.456l-5.2-96.88 95.624 16.416c19.544-64.96-6.464-155.376-72.312-229.368a372.976 372.976 0 0 0-8.288-9 355.84 355.84 0 0 0 33.208-10.264c93.08-33.88 158.88-101.128 172.512-167.576z" fill="#E6E7E8" p-id="1274"></path><path d="M972.216 426.752l-91.96-30.936 50.56-82.808c-53.152-42.144-146.784-51.36-239.864-17.48a353.328 353.328 0 0 0-36.904 15.888c0.608-8.424 0.936-16.976 0.936-25.64 0-99.048-40.688-183.888-98.464-219.416L496 142.192l-60.52-75.832c-57.776 35.536-98.464 120.368-98.464 219.416 0 8.664 0.328 17.216 0.936 25.64a353.328 353.328 0 0 0-36.904-15.888c-93.08-33.88-186.712-24.664-239.864 17.48l50.56 82.808-91.96 30.936c13.632 66.448 79.432 133.696 172.512 167.576 11.088 4.032 22.176 7.44 33.208 10.264-2.8 2.936-5.56 5.936-8.288 9-65.848 73.992-91.856 164.416-72.312 229.368l95.624-16.416-5.2 96.88c66.784 11.864 153.576-24.456 219.424-98.456A346.672 346.672 0 0 0 496 768.04a346.336 346.336 0 0 0 41.248 56.928c65.848 73.992 152.64 110.32 219.424 98.456l-5.2-96.88 95.624 16.416c19.544-64.96-6.464-155.376-72.312-229.368a372.976 372.976 0 0 0-8.288-9 355.84 355.84 0 0 0 33.208-10.264c93.08-33.88 158.88-101.128 172.512-167.576z" fill="#FFFFFF" p-id="1275"></path><path d="M972.216 450.752l-91.96-30.936 50.56-82.808c-53.152-42.144-146.784-51.36-239.864-17.48a353.328 353.328 0 0 0-36.904 15.888c0.608-8.424 0.936-16.976 0.936-25.64 0-99.048-40.688-183.888-98.464-219.416L496 166.192l-60.52-75.832c-57.776 35.536-98.464 120.368-98.464 219.416 0 8.664 0.328 17.216 0.936 25.64a353.328 353.328 0 0 0-36.904-15.888c-93.08-33.88-186.712-24.664-239.864 17.48l50.56 82.808-91.96 30.936c13.632 66.448 79.432 133.696 172.512 167.576 11.088 4.032 22.176 7.44 33.208 10.264-2.8 2.936-5.56 5.936-8.288 9-65.848 73.992-91.856 164.416-72.312 229.368l95.624-16.416-5.2 96.88c66.784 11.864 153.576-24.456 219.424-98.456A346.672 346.672 0 0 0 496 792.04a346.336 346.336 0 0 0 41.248 56.928c65.848 73.992 152.64 110.32 219.424 98.456l-5.2-96.88 95.624 16.416c19.544-64.96-6.464-155.376-72.312-229.368a372.976 372.976 0 0 0-8.288-9 355.84 355.84 0 0 0 33.208-10.264c93.08-33.88 158.88-101.128 172.512-167.576z" fill="#FFD7E5" p-id="1276"></path><path d="M445.552 823.232a340.816 340.816 0 0 1-39.248 36.696 8 8 0 0 0 9.952 12.528 355.864 355.864 0 0 0 41.096-38.424 8 8 0 1 0-11.8-10.8z" fill="#3A2C60" p-id="1277"></path><path d="M974.768 419.168l-82.464-27.744 45.336-74.248a8 8 0 0 0-1.856-10.44c-57.152-45.312-154.328-52.664-247.568-18.728-8.52 3.104-17.04 6.584-25.464 10.4 0.152-4.24 0.224-8.464 0.224-12.632 0-99.224-40.144-188.024-102.272-226.24a8.024 8.024 0 0 0-10.448 1.832L496 129.36l-54.272-68a8.008 8.008 0 0 0-10.448-1.824c-62.128 38.208-102.272 127.008-102.272 226.232 0 4.16 0.08 8.376 0.224 12.632a357.12 357.12 0 0 0-25.456-10.392c-93.24-33.944-190.424-26.592-247.568 18.728a8 8 0 0 0-1.856 10.44l45.336 74.248-82.456 27.744a8 8 0 0 0-5.288 9.184C26.6 499.808 96.32 567.904 189.56 601.84c6.928 2.52 14.016 4.856 21.192 6.976-65.624 74.032-94.48 166.776-73.512 236.448a7.984 7.984 0 0 0 9.016 5.576L232 836.128l-4.664 86.872a8 8 0 0 0 6.592 8.304c46.632 8.304 103.168-6.064 155.12-39.368a7.992 7.992 0 0 0 2.416-11.048 7.976 7.976 0 0 0-11.048-2.416c-45.992 29.472-95.384 43.16-136.704 38.128l4.656-86.816 41.384-46.496a8 8 0 0 0-11.952-10.64l-41.384 46.504-85.696 14.712c-15.624-63.848 12.296-147.312 72.488-214.936 2.184-2.456 4.408-4.84 6.64-7.216l60.512-16.504a8 8 0 0 0-4.208-15.44l-60.608 16.528a350.48 350.48 0 0 1-30.504-9.48C109.96 555.84 45.776 495.632 29.224 432.016l82.416-27.728 58.496 21.288a8 8 0 0 0 5.472-15.032l-58.48-21.288-45.328-74.216c53.568-38.096 141.432-42.96 226.52-11.992a345.72 345.72 0 0 1 34.56 14.824l45.344 45.304a8.008 8.008 0 0 0 11.32-11.328l-43.744-43.704a348.424 348.424 0 0 1-0.776-22.376c0-90.528 34.624-171.44 88.744-208.752L488 144.992v62.24a8 8 0 0 0 16 0v-62.248l54.24-67.968c54.12 37.32 88.744 118.216 88.744 208.752 0 7.264-0.28 14.688-0.76 22.12l-43.84 43.808a8 8 0 1 0 11.32 11.328l44.976-44.936a346.04 346.04 0 0 1 35.016-15.04c85.072-30.96 172.944-26.096 226.512 12l-45.32 74.224-58.48 21.288a8 8 0 1 0 5.472 15.032l58.496-21.288 82.416 27.728c-16.552 63.616-80.736 123.824-165.808 154.792-9.896 3.6-20.16 6.76-30.512 9.48l-60.608-16.536a8 8 0 0 0-4.208 15.44l60.528 16.512c2.232 2.368 4.456 4.752 6.632 7.208 60.184 67.632 88.112 151.088 72.488 214.936l-85.696-14.712-41.384-46.504a8 8 0 0 0-11.952 10.64l41.384 46.496 4.656 86.832c-65.208 8.096-144.88-29.312-205.064-96.952a338.216 338.216 0 0 1-39.224-53.864V703.04a8 8 0 0 0-16 0v62.736a332.024 332.024 0 0 1-22.12 33.104 8 8 0 1 0 12.736 9.68 355.04 355.04 0 0 0 17.376-25.032 358.056 358.056 0 0 0 35.272 46.776c57.76 64.912 133.192 103.384 199.28 103.376 9.384 0 18.592-0.776 27.52-2.36a8 8 0 0 0 6.592-8.304L760 836.128l85.736 14.712a7.96 7.96 0 0 0 9.016-5.576c20.968-69.672-7.888-162.408-73.512-236.448a362.76 362.76 0 0 0 21.192-6.976c93.24-33.944 162.96-102.032 177.616-173.488a7.984 7.984 0 0 0-5.28-9.184z" fill="#3A2C60" p-id="1278"></path><path d="M674.424 463.856a28.72 28.72 0 0 0-35.176-20.304 28.624 28.624 0 0 0-21.152 27.12L531.632 493.84c-5.424-10.8-15.448-18.896-27.632-21.368V375.12a28.624 28.624 0 0 0 20.72-27.448 28.72 28.72 0 1 0-57.44 0A28.624 28.624 0 0 0 488 375.12v97.352c-12.184 2.472-22.208 10.56-27.632 21.368l-86.472-23.168a28.632 28.632 0 0 0-21.152-27.12 28.72 28.72 0 0 0-14.872 55.48c12.624 3.384 25.424-2.28 31.88-12.912l86.48 23.168c-0.048 0.8-0.24 1.56-0.24 2.376 0 10.16 3.904 19.32 10.144 26.376l-53.816 71.536a28.64 28.64 0 0 0-33.056 9.48 28.72 28.72 0 1 0 45.904 34.528c7.856-10.44 7.392-24.432-0.056-34.392l53.792-71.504c5.2 2.472 10.952 3.968 17.096 3.968s11.896-1.496 17.096-3.968l53.792 71.504c-7.448 9.96-7.912 23.952-0.056 34.392a28.72 28.72 0 0 0 45.904-34.528 28.64 28.64 0 0 0-33.056-9.48l-53.816-71.536A39.68 39.68 0 0 0 536 511.664c0-0.816-0.192-1.576-0.24-2.376l86.48-23.168a28.64 28.64 0 0 0 31.88 12.912 28.72 28.72 0 0 0 20.304-35.176z" fill="#FA759E" p-id="1279"></path></svg>